<svg width="128" height="128" viewBox="0 0 128 128" fill="none" xmlns="http://www.w3.org/2000/svg">
<path d="M0 0H128V128H0V0Z" fill="#AA36EF"/>
<path d="M18.4639 112H12.9959V75.6165H18.4639V112Z" fill="white"/>
<path d="M44.7032 85.9216H50.2413V112H44.7032V107.233C43.8152 108.822 42.5767 110.084 40.9877 111.019C39.4454 111.953 37.7863 112.421 36.0104 112.421C33.0193 112.421 30.6358 111.509 28.8599 109.687C27.0839 107.864 26.1959 105.27 26.1959 101.905V85.9216H31.664V100.223C31.664 105.036 33.6502 107.443 37.6227 107.443C39.6324 107.443 41.3148 106.789 42.6702 105.48C44.0255 104.172 44.7032 102.349 44.7032 100.012V85.9216Z" fill="white"/>
<path d="M77.9913 77.6495V82.9072H63.5501V91.3196C64.9989 90.5251 66.6346 90.1278 68.4573 90.1278C71.7755 90.1278 74.5563 91.1326 76.7996 93.1423C79.0896 95.1052 80.2346 97.699 80.2346 100.924C80.2346 104.195 79.0195 106.929 76.5892 109.126C74.159 111.322 71.1913 112.421 67.6861 112.421C63.0593 112.421 59.3673 110.878 56.6099 107.794L59.6944 103.588C59.7411 103.634 59.8813 103.775 60.115 104.008C60.3954 104.195 60.6291 104.359 60.816 104.499C61.3769 104.966 62.3349 105.48 63.6903 106.041C65.0923 106.555 66.5178 106.812 67.9666 106.812C69.7425 106.812 71.2614 106.298 72.5233 105.27C73.8319 104.242 74.4862 102.84 74.4862 101.064C74.4862 99.2412 73.7851 97.8158 72.3831 96.7876C70.981 95.7127 69.1817 95.1753 66.9851 95.1753C64.8353 95.1753 62.7556 95.7127 60.7459 96.7876L58.2923 94.1237V77.6495H77.9913Z" fill="white"/>
<path d="M103.015 85.934L97.2132 82.0371L97.7328 88.965H93.5761L94.0957 81.9505L88.3802 85.8474L86.3018 82.3835L92.4503 79.266L86.3018 76.235L88.3802 72.6845L94.0091 76.4948L93.5761 69.6536H97.7328L97.2998 76.4948L103.015 72.6845L105.094 76.235L98.8585 79.266L105.094 82.3835L103.015 85.934Z" fill="white"/>
</svg>
